<?xml version="1.0" encoding="iso-8859-1"?>
<!-- Uploaded to: SVG Repo, www.svgrepo.com, Generator: SVG Repo Mixer Tools -->
<svg fill="#000000" height="800px" width="800px" version="1.1" id="Layer_1" xmlns="http://www.w3.org/2000/svg" xmlns:xlink="http://www.w3.org/1999/xlink" 
	 viewBox="0 0 512 512" xml:space="preserve">
<g>
	<g>
		<g>
			<path d="M366.932,366.933c-4.71,0-8.533,3.814-8.533,8.533v17.067c0,4.719,3.823,8.533,8.533,8.533
				c4.71,0,8.533-3.814,8.533-8.533v-17.067C375.466,370.748,371.643,366.933,366.932,366.933z"/>
			<path d="M366.932,426.667c-4.71,0-8.533,3.814-8.533,8.533v17.067c0,4.719,3.823,8.533,8.533,8.533
				c4.71,0,8.533-3.814,8.533-8.533V435.2C375.466,430.481,371.643,426.667,366.932,426.667z"/>
			<path d="M366.932,486.4c-4.71,0-8.533,3.814-8.533,8.533v8.533c0,4.719,3.823,8.533,8.533,8.533c4.71,0,8.533-3.814,8.533-8.533
				v-8.533C375.466,490.214,371.643,486.4,366.932,486.4z"/>
			<path d="M435.199,426.667c-4.71,0-8.533,3.814-8.533,8.533v17.067c0,4.719,3.823,8.533,8.533,8.533
				c4.71,0,8.533-3.814,8.533-8.533V435.2C443.732,430.481,439.91,426.667,435.199,426.667z"/>
			<path d="M435.199,366.933c-4.71,0-8.533,3.814-8.533,8.533v17.067c0,4.719,3.823,8.533,8.533,8.533
				c4.71,0,8.533-3.814,8.533-8.533v-17.067C443.732,370.748,439.91,366.933,435.199,366.933z"/>
			<path d="M435.199,486.4c-4.71,0-8.533,3.814-8.533,8.533v8.533c0,4.719,3.823,8.533,8.533,8.533c4.71,0,8.533-3.814,8.533-8.533
				v-8.533C443.732,490.214,439.91,486.4,435.199,486.4z"/>
			<path d="M401.066,354.983c-4.71,0-8.533,3.814-8.533,8.533v9.395c0,4.71,3.823,8.533,8.533,8.533s8.533-3.823,8.533-8.533v-9.395
				C409.599,358.798,405.776,354.983,401.066,354.983z"/>
			<path d="M401.066,322.13c-4.71,0-8.533,3.823-8.533,8.533v9.387c0,4.719,3.823,8.533,8.533,8.533s8.533-3.814,8.533-8.533v-9.387
				C409.599,325.953,405.776,322.13,401.066,322.13z"/>
			<path d="M401.066,387.838c-4.71,0-8.533,3.823-8.533,8.533v9.387c0,4.719,3.823,8.533,8.533,8.533s8.533-3.814,8.533-8.533
				v-9.387C409.599,391.661,405.776,387.838,401.066,387.838z"/>
			<path d="M401.066,453.554c-4.71,0-8.533,3.814-8.533,8.533v9.378c0,4.719,3.823,8.533,8.533,8.533s8.533-3.814,8.533-8.533
				v-9.378C409.599,457.368,405.776,453.554,401.066,453.554z"/>
			<path d="M401.066,420.692c-4.71,0-8.533,3.814-8.533,8.533v9.395c0,4.71,3.823,8.533,8.533,8.533s8.533-3.823,8.533-8.533v-9.395
				C409.599,424.506,405.776,420.692,401.066,420.692z"/>
			<path d="M401.066,486.4c-4.71,0-8.533,3.814-8.533,8.533v8.533c0,4.719,3.823,8.533,8.533,8.533s8.533-3.814,8.533-8.533v-8.533
				C409.599,490.214,405.776,486.4,401.066,486.4z"/>
			<path d="M461.018,318.933c-12.87-16.067-31.272-26.109-51.418-28.33v-53.734c16.838-8.448,25.6-41.753,25.6-74.736
				c0-32.983-8.762-66.288-25.6-74.736V59.733c0-4.719-3.823-8.533-8.533-8.533c-9.412,0-17.067-7.654-17.067-17.067
				c0-9.412,7.654-17.067,17.067-17.067c9.412,0,17.067,7.654,17.067,17.067c0,12.006,1.843,51.2,25.6,51.2
				c4.71,0,8.533-3.814,8.533-8.533s-3.823-8.533-8.533-8.533c-3.439,0-8.533-14.336-8.533-34.133
				C435.199,15.309,419.89,0,401.066,0s-34.133,15.309-34.133,34.133c0,15.872,10.897,29.261,25.6,33.05v20.214
				c-16.838,8.448-25.6,41.753-25.6,74.736c0,32.983,8.762,66.288,25.6,74.736v53.734c-20.142,2.22-38.546,12.262-51.417,28.33
				c-2.944,3.678-2.355,9.045,1.323,11.989c3.669,2.944,9.045,2.372,11.998-1.323c1.252-1.562,2.582-3.037,3.963-4.45v7.65
				c0,4.719,3.823,8.533,8.533,8.533c4.71,0,8.533-3.814,8.533-8.533v-8.533c0-3.795-2.474-7-5.892-8.112
				c6.962-4.328,14.772-7.163,22.99-8.332c0.32,4.426,4.002,7.91,8.502,7.91c4.5,0,8.182-3.484,8.502-7.91
				c8.219,1.169,16.029,4.004,22.991,8.331c-3.418,1.112-5.893,4.317-5.893,8.112v8.533c0,4.719,3.823,8.533,8.533,8.533
				c4.71,0,8.533-3.814,8.533-8.533v-7.652c1.381,1.413,2.712,2.889,3.965,4.452c1.69,2.108,4.164,3.2,6.665,3.2
				c1.877,0,3.755-0.614,5.333-1.877C463.373,327.979,463.962,322.611,461.018,318.933z M383.999,162.133
				c0-38.801,12.109-59.733,17.067-59.733c4.958,0,17.067,20.932,17.067,59.733s-12.109,59.733-17.067,59.733
				C396.108,221.867,383.999,200.934,383.999,162.133z"/>
			<path d="M76.799,426.667c-4.71,0-8.533,3.814-8.533,8.533v17.067c0,4.719,3.823,8.533,8.533,8.533
				c4.71,0,8.533-3.814,8.533-8.533V435.2C85.333,430.481,81.51,426.667,76.799,426.667z"/>
			<path d="M76.799,366.933c-4.71,0-8.533,3.814-8.533,8.533v17.067c0,4.719,3.823,8.533,8.533,8.533
				c4.71,0,8.533-3.814,8.533-8.533v-17.067C85.333,370.748,81.51,366.933,76.799,366.933z"/>
			<path d="M76.799,486.4c-4.71,0-8.533,3.814-8.533,8.533v8.533c0,4.719,3.823,8.533,8.533,8.533c4.71,0,8.533-3.814,8.533-8.533
				v-8.533C85.333,490.214,81.51,486.4,76.799,486.4z"/>
			<path d="M145.066,366.933c-4.71,0-8.533,3.814-8.533,8.533v17.067c0,4.719,3.823,8.533,8.533,8.533
				c4.71,0,8.533-3.814,8.533-8.533v-17.067C153.599,370.748,149.776,366.933,145.066,366.933z"/>
			<path d="M145.066,426.667c-4.71,0-8.533,3.814-8.533,8.533v17.067c0,4.719,3.823,8.533,8.533,8.533
				c4.71,0,8.533-3.814,8.533-8.533V435.2C153.599,430.481,149.776,426.667,145.066,426.667z"/>
			<path d="M145.066,486.4c-4.71,0-8.533,3.814-8.533,8.533v8.533c0,4.719,3.823,8.533,8.533,8.533c4.71,0,8.533-3.814,8.533-8.533
				v-8.533C153.599,490.214,149.776,486.4,145.066,486.4z"/>
			<path d="M110.932,322.13c-4.71,0-8.533,3.823-8.533,8.533v9.387c0,4.719,3.823,8.533,8.533,8.533s8.533-3.814,8.533-8.533v-9.387
				C119.466,325.953,115.643,322.13,110.932,322.13z"/>
			<path d="M110.932,354.983c-4.71,0-8.533,3.814-8.533,8.533v9.395c0,4.71,3.823,8.533,8.533,8.533s8.533-3.823,8.533-8.533v-9.395
				C119.466,358.798,115.643,354.983,110.932,354.983z"/>
			<path d="M110.932,420.692c-4.71,0-8.533,3.814-8.533,8.533v9.395c0,4.71,3.823,8.533,8.533,8.533s8.533-3.823,8.533-8.533v-9.395
				C119.466,424.506,115.643,420.692,110.932,420.692z"/>
			<path d="M110.932,453.554c-4.71,0-8.533,3.814-8.533,8.533v9.378c0,4.719,3.823,8.533,8.533,8.533s8.533-3.814,8.533-8.533
				v-9.378C119.466,457.368,115.643,453.554,110.932,453.554z"/>
			<path d="M110.932,387.838c-4.71,0-8.533,3.823-8.533,8.533v9.387c0,4.719,3.823,8.533,8.533,8.533s8.533-3.814,8.533-8.533
				v-9.387C119.466,391.661,115.643,387.838,110.932,387.838z"/>
			<path d="M110.932,486.4c-4.71,0-8.533,3.814-8.533,8.533v8.533c0,4.719,3.823,8.533,8.533,8.533s8.533-3.814,8.533-8.533v-8.533
				C119.466,490.214,115.643,486.4,110.932,486.4z"/>
			<path d="M119.466,290.604V236.87c16.838-8.448,25.6-41.753,25.6-74.736c0-32.983-8.762-66.288-25.6-74.736V59.733
				c0-4.719-3.823-8.533-8.533-8.533c-9.412,0-17.067-7.654-17.067-17.067c0-9.412,7.654-17.067,17.067-17.067
				c9.412,0,17.067,7.654,17.067,17.067c0,12.006,1.843,51.2,25.6,51.2c4.71,0,8.533-3.814,8.533-8.533s-3.823-8.533-8.533-8.533
				c-3.439,0-8.533-14.336-8.533-34.133C145.066,15.309,129.757,0,110.932,0S76.799,15.309,76.799,34.133
				c0,15.872,10.897,29.261,25.6,33.05v20.214c-16.838,8.448-25.6,41.753-25.6,74.736c0,32.983,8.762,66.288,25.6,74.736v53.734
				c-20.142,2.22-38.546,12.262-51.417,28.33c-2.944,3.678-2.355,9.045,1.323,11.989c3.678,2.944,9.045,2.372,11.998-1.323
				c1.252-1.562,2.582-3.037,3.963-4.45v7.65c0,4.719,3.823,8.533,8.533,8.533c4.71,0,8.533-3.814,8.533-8.533v-8.533
				c0-3.795-2.474-7-5.892-8.112c6.962-4.328,14.772-7.163,22.99-8.332c0.32,4.426,4.001,7.91,8.502,7.91
				c4.5,0,8.182-3.484,8.502-7.91c8.219,1.169,16.029,4.004,22.991,8.331c-3.418,1.111-5.893,4.317-5.893,8.112v8.533
				c0,4.719,3.823,8.533,8.533,8.533c4.71,0,8.533-3.814,8.533-8.533v-7.652c1.381,1.413,2.712,2.889,3.965,4.452
				c1.69,2.108,4.164,3.2,6.664,3.2c1.877,0,3.755-0.614,5.333-1.877c3.678-2.944,4.267-8.311,1.323-11.989
				C158.014,302.866,139.612,292.825,119.466,290.604z M93.866,162.133c0-38.801,12.109-59.733,17.067-59.733
				s17.067,20.932,17.067,59.733s-12.109,59.733-17.067,59.733S93.866,200.934,93.866,162.133z"/>
		</g>
	</g>
</g>
</svg>