<?xml version="1.0" encoding="utf-8"?>

<!DOCTYPE svg PUBLIC "-//W3C//DTD SVG 1.1//EN" "http://www.w3.org/Graphics/SVG/1.1/DTD/svg11.dtd">
<!-- Uploaded to: SVG Repo, www.svgrepo.com, Generator: SVG Repo Mixer Tools -->
<svg height="800px" width="800px" version="1.1" id="_x32_" xmlns="http://www.w3.org/2000/svg" xmlns:xlink="http://www.w3.org/1999/xlink" 
	 viewBox="0 0 512 512"  xml:space="preserve">
<style type="text/css">
	.st0{fill:#000000;}
</style>
<g>
	<path class="st0" d="M496.302,15.691c-20.205-20.206-51.899-21.259-72.105-1.053c-32.411,32.41-7.647,43.598-25.337,54.669
		c-18.162,11.351-37.069-9.164-62.161-11.952c-17.636-1.953-33.455-1.389-54.351,8.364c-0.654,0.3-1.271,0.618-1.879,0.926
		l-2.78-2.769c-9.671-9.672-25.373-9.68-35.063,0l-23.275,23.275c-9.69,9.69-9.69,25.392,0,35.072l0.926,0.936l19.488,19.488
		l19.788,19.778l90.013,90.013l19.788,19.797l19.488,19.488l0.927,0.918c9.69,9.69,25.391,9.69,35.08,0l23.267-23.276
		c9.69-9.68,9.69-25.373,0-35.063l-2.77-2.769c0.318-0.618,0.627-1.227,0.926-1.88c9.754-20.904,10.326-36.715,8.364-54.351
		c-2.788-25.091-23.284-43.99-11.941-62.152c11.06-17.708,22.258,7.066,54.66-25.336C517.57,67.6,516.508,35.906,496.302,15.691z
		 M282.712,97.704c68.472-45.652,96.996,17.127,96.996,17.127L282.712,97.704z"/>
	<path class="st0" d="M153.276,174.395l53.743,53.743l-17.636,17.636l-53.743-53.743l-26.435,26.436l53.743,53.752l-17.628,17.627
		l-53.751-53.743l-26.445,26.436l53.752,53.743l-17.626,17.627l-53.743-53.743l-28.951,28.951c-24.737,24.728-24.737,64.84,0,89.568
		l94.763,94.763c24.738,24.738,64.85,24.738,89.578,0l176.421-176.422l-184.34-184.331L153.276,174.395z"/>
</g>
</svg>