<?xml version="1.0" encoding="iso-8859-1"?>
<!-- Uploaded to: SVG Repo, www.svgrepo.com, Generator: SVG Repo Mixer Tools -->
<svg fill="#000000" height="800px" width="800px" version="1.1" id="Layer_1" xmlns="http://www.w3.org/2000/svg" xmlns:xlink="http://www.w3.org/1999/xlink" 
	 viewBox="0 0 247.646 247.646" xml:space="preserve">
<g>
	<g>
		<g>
			<path d="M138.129,86.59V53.77c-0.06,0.068-0.092,0.092-0.176,0.196c-1.7-6.972-25.372-7.244-28.688-0.784l-0.404,0.404v7.172
				c-0.396-0.496-0.868-1.032-1.44-1.636c-0.268-0.28-0.508-0.532-0.68-0.728c-1.176-1.352-2.588-1.98-3.848-1.72
				c-0.824,0.168-1.428,0.736-1.548,1.436c-0.068,0.404,0.04,0.768,0.124,1.004c0.324,0.916,1.432,1.756,2.644,2.436
				c-1.62-0.024-3.064,0.184-3.32,1.344c-0.296,1.344,0.152,2.14,0.584,2.568c0.652,0.652,1.636,0.832,2.32,0.832
				c0.24,0,0.44-0.02,0.584-0.052c1.208-0.276,3.232-1.52,4.58-2.508v1.032c-3.668,3.244-6.536,7.232-7.896,11.192
				c-2.008,5.876-2.168,10.616-1.2,14.524c-2.648,1.512-5.064,3.268-7.204,5.232V78.686c0-8.912-7.468-27.868-25.116-34.66V23.714
				c-0.012,0.016-0.028,0.028-0.04,0.044c-0.192-2.292-3.492-3.76-7.712-4.424c-0.172-3.172-0.224-6.748,1.396-8.448
				c0.692-0.728,1.672-1.084,2.992-1.084c0.036,0,0.076,0,0.124,0c1.496,0,5.412-0.408,6.984-0.572c2.828-0.296,4.524-2,4.536-4.548
				c0.016-2.56-1.668-4.264-4.496-4.56c-0.68-0.072-1.372-0.06-2.06-0.052l-0.756,0.008c-3.288,0-6.58,0.008-9.868,0.02
				c-8.084,0.032-16.424,0.056-24.64-0.092c-4.772-0.088-9.084,0.788-13.12,2.672c-1.788,0.836-3.672,1.592-5.492,2.324
				c-1.732,0.692-3.464,1.388-5.156,2.164c-2.516,1.156-3.5,3.536-2.448,5.924c1.032,2.324,3.276,3.228,5.988,2.404
				c1.84-0.552,3.232-1.168,4.476-1.744c11.76-5.972,24.452-4.408,25.128-4.392c3.116,0.072,4.76,0.176,5.232,1.628
				c0.416,1.292,0.52,5.336,0.484,8.328c-3.344,0.504-6.136,1.5-7.312,3.012l-0.684,0.684v20.524
				C21.653,50.07,14.897,70.69,14.897,78.678v160.008c0,7.172,29.728,7.732,38.836,7.732c7.188,0,27.148-0.364,35.276-4.036
				c7.776,3.468,21.168,5.264,34.496,5.264c20.508,0,41.268-4.228,41.268-12.308V117.81
				C164.761,103.55,153.665,91.394,138.129,86.59z M103.953,64.802c-0.236,0.048-1.132,0.02-1.544-0.392
				c-0.088-0.088-0.364-0.368-0.204-1.148c0.176-0.18,0.772-0.24,1.48-0.24c0.864,0,1.88,0.084,2.464,0.136
				c0.3,0.024,0.588,0.048,0.856,0.068C105.893,63.958,104.649,64.646,103.953,64.802z M102.853,58.622
				c-0.064-0.176-0.064-0.248-0.06-0.268c0.008-0.056,0.156-0.184,0.392-0.232c0.096-0.02,0.196-0.032,0.292-0.032
				c0.932,0,1.796,0.868,2.144,1.272c0.184,0.208,0.436,0.48,0.724,0.78c0.388,0.404,0.884,0.928,1.28,1.408
				C105.669,60.834,103.165,59.498,102.853,58.622z M123.493,51.254c7.32,0,11.8,2.264,11.8,3.496s-4.48,3.496-11.8,3.496
				c-7.32,0-11.796-2.264-11.796-3.496S116.169,51.254,123.493,51.254z M111.693,58.638c2.804,1.608,7.312,2.444,11.796,2.444
				c4.488,0,8.996-0.832,11.8-2.444v3.308c-1.58,1.56-5.964,2.952-11.8,2.952c-5.832,0-10.216-1.388-11.796-2.948V58.638z
				 M111.693,63.79c2.632,1.68,7.284,2.58,11.796,2.58c4.516,0,9.172-0.9,11.8-2.58l0.004,23.884
				c-0.22,0.744-4.176,2.692-11.804,2.692c-7.624,0-11.584-1.948-11.796-2.668V63.79z M102.361,76.438
				c1.152-3.372,3.488-6.776,6.496-9.68V86.57c-2.74,0.844-5.332,1.916-7.756,3.192C100.301,86.162,100.529,81.806,102.361,76.438z
				 M59.685,9.554c-2.368,2.492-2.092,7.164-1.876,10.916c0.04,0.644,0.076,1.268,0.096,1.848c-0.352,0.26-1.624,0.684-3.56,0.684
				c-1.904,0-3.164-0.408-3.54-0.668c0.168-2.004,0.252-9.68-0.468-11.924c-0.112-0.344-0.244-0.644-0.396-0.908h9.828
				C59.749,9.522,59.713,9.526,59.685,9.554z M48.837,8.358v0.004c-1.232-0.752-3.052-0.784-5.52-0.924
				c-3.82-0.22-15.596-0.592-26.072,4.608c-1.1,0.58-2.416,1.088-4.132,1.604c-1.236,0.38-2.88,0.436-3.668-1.336
				c-0.624-1.412-0.068-2.68,1.488-3.392c1.664-0.76,3.368-1.444,5.072-2.128c1.844-0.74,3.752-1.504,5.592-2.368
				c3.756-1.756,7.78-2.572,12.264-2.496c8.232,0.152,16.584,0.12,24.684,0.092c3.284-0.012,6.576-0.024,9.856-0.024l0.792-0.008
				c0.616-0.008,1.228-0.024,1.824,0.04c1.268,0.132,2.78,0.696,2.768,2.632c-0.004,1.556-0.948,2.444-2.9,2.652
				c-1.316,0.136-5.296,0.552-6.684,0.552c-0.052,0-0.088,0-0.132,0c-0.976,0-1.832,0.18-2.592,0.492H48.837z M48.929,21.594
				c-0.02,0.38-0.044,0.688-0.068,0.888c0,1.804,2.956,2.444,5.488,2.444c2.532,0,5.488-0.64,5.488-2.444l-0.112-0.152l0.112-0.004
				c-0.008-0.22-0.024-0.472-0.036-0.704c3.452,0.648,5.328,1.748,5.328,2.336c0,0.856-3.704,2.856-10.884,2.856
				c-7.176,0-10.88-2-10.88-2.856C43.369,23.358,45.337,22.234,48.929,21.594z M43.829,36.374c2.252,1.428,6.02,2.348,10.384,2.348
				c4.368,0,8.136-0.92,10.392-2.348V49.55l0.04,1c-0.448,0.744-4.316,2.076-10.428,2.076c-6.108,0-9.976-1.332-10.388-1.9V36.374z
				 M43.825,34.966v-7.764c2.54,1.24,6.48,1.888,10.42,1.888c3.908,0,7.812-0.64,10.356-1.86v7.736
				c-1.748,1.432-5.52,2.624-10.392,2.624C49.349,37.59,45.577,36.398,43.825,34.966z M53.721,242.458
				c-19.636,0-32.78-2.396-34.868-4.14V78.686c0-7.892,6.584-24.604,22.136-30.804v2.844c0,4.604,11.872,4.736,13.224,4.736
				c1.356,0,13.228-0.132,13.228-4.736v-2.48c15.732,6.86,21.148,24.568,21.148,30.436v21.304c-4.028,5.16-6.368,11.272-6.368,17.82
				v117.536c0,1.64,0.892,3.112,2.424,4.432C79.045,241.158,68.169,242.458,53.721,242.458z M160.797,235.35h-0.004
				c0,2.832-13.164,8.336-37.3,8.336s-37.3-5.508-37.3-8.336V117.81c0-9.632,5.9-18.176,14.968-23.552
				c4.06,7.96,13.472,11.472,19.56,13.724c1.448,0.536,2.7,1,3.66,1.436c2.552,1.168,5.524,3.356,5.184,7.168
				c-0.084,0.932-0.432,1.968-0.904,3.04c-2.004-0.792-4.072-1.3-6.196-1.332c-0.096,0-0.188-0.004-0.284-0.004
				c-13.532,0-24.788,16.004-25.156,35.864c-0.224,12.012,3.608,23.284,10.244,30.152c4.048,4.184,8.84,6.44,13.868,6.524
				c0.092,0,0.188,0.004,0.28,0.004c13.536,0,24.796-16.004,25.16-35.864c0.224-12.012-3.608-23.284-10.244-30.152
				c-1.944-2.012-4.068-3.552-6.304-4.644c0.52-1.204,0.908-2.368,1.008-3.452c0.324-3.644-1.82-6.712-6.044-8.636
				c-1.008-0.46-2.28-0.932-3.756-1.48c-6.208-2.296-15.064-5.604-18.8-13.084c2.436-1.32,5.076-2.42,7.88-3.26
				c2.528,2.004,7.988,2.948,13.18,2.948c5.2,0,10.668-0.944,13.192-2.952c14.072,4.224,24.108,14.976,24.108,27.564V235.35z
				 M123.137,128.31c0.144,0.14,0.328,0.208,0.516,0.208c0.192,0,0.384-0.076,0.528-0.22c0.768-0.788,1.4-1.544,2.044-2.304
				c0.216,0.352,0.364,0.736,0.356,1.156c-0.012,0.588-0.252,1.14-0.68,1.548c-0.884,0.844-2.304,0.828-3.164-0.052
				c-0.412-0.424-0.632-0.98-0.62-1.572c0.012-0.588,0.252-1.14,0.68-1.548c0.432-0.416,0.996-0.624,1.556-0.624
				c0.252,0,0.5,0.064,0.744,0.148c-0.616,0.728-1.228,1.456-1.964,2.208C122.837,127.558,122.845,128.026,123.137,128.31z
				 M125.853,124.17c-1.244-0.624-2.784-0.476-3.844,0.544c-0.648,0.62-1.016,1.452-1.032,2.348c-0.016,0.892,0.316,1.74,0.94,2.38
				c0.66,0.672,1.54,1.012,2.42,1.012c0.84,0,1.684-0.312,2.336-0.932c0.648-0.62,1.016-1.456,1.032-2.348
				c0.012-0.756-0.272-1.448-0.724-2.04c0.8-1.008,1.48-1.984,2.044-2.932c2,0.98,3.908,2.372,5.668,4.188
				c6.224,6.444,9.812,17.112,9.604,28.532c-0.344,18.628-10.584,33.64-22.892,33.64c-0.084,0-0.164,0-0.248,0
				c-4.416-0.072-8.656-2.088-12.272-5.832c-6.228-6.444-9.816-17.112-9.608-28.532c0.348-18.628,10.588-33.64,22.892-33.64
				c0.084,0,0.164,0,0.248,0c1.776,0.028,3.512,0.456,5.2,1.1C127.125,122.47,126.533,123.306,125.853,124.17z"/>
			<path d="M227.701,222.146l12.672-146.58V74.53c0-4.616-3.752-8.368-8.368-8.368h-56.696c-4.952,0-8.98,4.028-8.98,8.98v0.428
				l12.672,146.58h4.796v4.08h-6.752v10.5c0,5.276,4.292,9.568,9.568,9.568h33.484c5.272,0,9.568-4.292,9.568-9.568v-10.504h-6.752
				v-4.08H227.701z M232.653,70.258c2.108,0.324,3.752,2.072,3.752,4.268v1.036h-5.568L232.653,70.258z M231.501,70.13l-1.86,5.436
				h-6.052l2.268-5.436H231.501z M224.629,70.13l-2.268,5.436h-5.42l1.852-5.436H224.629z M217.597,70.13l-1.852,5.436h-5.448
				l1.86-5.436H217.597z M210.965,70.13l-1.86,5.436h-6.056l2.268-5.436H210.965z M204.089,70.13l-2.268,5.436h-6.116l2.376-5.436
				H204.089z M196.845,70.13l-2.376,5.436h-4.708l1.86-5.436H196.845z M190.425,70.13l-1.86,5.436h-6.052l2.268-5.436H190.425z
				 M183.549,70.13l-2.268,5.436h-5.984l2.28-5.436H183.549z M170.293,75.138h0.004c0-2.76,2.248-5.008,5.012-5.008h1.036
				l-2.28,5.436h-3.772V75.138z M225.689,230.194v6.532c0,3.088-2.512,5.6-5.596,5.6h-33.484c-3.084,0-5.596-2.512-5.596-5.6v-6.532
				H225.689z M186.061,226.226v-4.08h34.58v4.08H186.061z M182.633,218.178L170.441,79.534h65.82l-12.192,138.644H182.633z"/>
			<path d="M203.349,87.15c-11.172,0-20.26,12.112-20.26,26.996c0,14.884,9.088,26.996,20.26,26.996s20.26-12.108,20.26-26.996
				S214.521,87.15,203.349,87.15z M203.349,138.874c-9.92,0-17.996-11.092-17.996-24.724c0-13.636,8.076-24.728,17.996-24.728
				c9.92,0,17.996,11.092,17.996,24.728C221.345,127.782,213.273,138.874,203.349,138.874z"/>
			<path d="M209.657,106.35c-0.608-2.892-2.712-4.756-4.672-6.292c-0.416-0.32-0.78-0.52-1.152-0.624
				c-0.132-0.04-0.272-0.04-0.408,0c-0.372,0.104-0.752,0.312-1.156,0.628c-1.96,1.532-4.06,3.396-4.668,6.288
				c-2.916-0.852-5.572-0.196-8.248,0.624c-0.512,0.156-2.072,0.632-1.612,2.588c0.7,3.052,1.616,5.912,4.86,7.416
				c-1.196,1.284-1.864,2.864-2.084,4.888c-0.088,0.852,0.736,1.876,1.472,2.152c2.332,0.88,5.32,1.624,8.132-0.132
				c1.376,1.668,2.28,2.684,3.304,2.984c0.068,0.02,0.136,0.028,0.208,0.028s0.14-0.008,0.208-0.028
				c1.024-0.3,1.928-1.312,3.304-2.984c2.816,1.756,5.8,1.012,8.128,0.132c0.744-0.276,1.568-1.3,1.476-2.156
				c-0.224-2.02-0.892-3.6-2.084-4.884c3.244-1.504,4.16-4.364,4.86-7.416c0.448-1.96-1.1-2.432-1.612-2.588
				C215.229,106.15,212.581,105.494,209.657,106.35z M198.937,107.398c0.24-2.556,1.868-4.32,4.244-6.176
				c0.164-0.128,0.316-0.224,0.452-0.292c0.132,0.068,0.284,0.164,0.452,0.292c2.376,1.86,4.004,3.62,4.244,6.176
				c0.008,0.064-2.816,2.964-2.816,2.964c-0.644,0.62-1.516,1.472-1.54,2.576c-0.064-1.112-1.024-1.984-1.68-2.564l-3.364-2.968
				C198.929,107.406,198.937,107.406,198.937,107.398z M206.401,119.438c-0.764-0.516-2.024-1.788-2.076-1.808
				c-0.088-0.036-0.164-0.056-0.26-0.056s-0.168,0.02-0.26,0.056c-0.052,0.02-1.312,1.288-2.076,1.808
				c-0.824-2.104,0.668-4.124,1.408-4.944c0.036-0.04,0.428-0.364,0.584-0.556c0.176-0.232,0.264-0.52,0.272-0.828
				c0.016,0.28,0.076,0.536,0.224,0.744c0.196,0.268,0.464,0.432,0.644,0.54c0.036,0.024,0.124,0.088,0.136,0.1
				C205.733,115.314,207.229,117.334,206.401,119.438z M189.177,109.23c-0.108-0.464-0.144-0.62,0.604-0.848
				c2.456-0.752,4.876-1.288,7.424-0.548c0.012,0.012,4.104,3.652,4.104,3.652c0.456,0.4,1.216,1.072,1.244,1.54
				c-0.04,0.04-0.192,0.124-0.248,0.152c-2.436,1.336-5.356,2.244-8.432,2.616c-0.04,0.004-0.056,0.044-0.092,0.052
				C190.689,114.686,189.873,112.27,189.177,109.23z M215.281,121.986c-0.02,0.168-0.332,0.58-0.528,0.652
				c-3.224,1.208-5.408,1.108-7.304-0.332c-0.316-0.236-0.764-0.184-1.016,0.12c-1.216,1.48-2.124,2.592-2.8,2.94
				c-0.676-0.348-1.584-1.46-2.8-2.94c-0.144-0.176-0.356-0.268-0.572-0.268c-0.156,0-0.312,0.048-0.444,0.148
				c-1.908,1.448-4.084,1.544-7.308,0.332c-0.192-0.072-0.504-0.484-0.524-0.616c0.228-2.096,2.504-4.82,2.536-4.86
				c2.2-0.308,4.26-0.928,6.188-1.72c-0.936,1.872-0.924,3.808,0.112,5.44c0.14,0.22,0.38,0.34,0.62,0.34
				c0.128,0,0.252-0.032,0.372-0.1c0.936-0.548,1.66-1.168,2.252-1.788c0.592,0.624,1.32,1.244,2.252,1.788
				c0.116,0.068,0.244,0.1,0.372,0.1c0.244,0,0.48-0.12,0.62-0.34c1.012-1.588,1.02-3.464,0.16-5.292
				c1.644,0.68,3.372,1.22,5.216,1.496C212.733,117.158,215.053,119.926,215.281,121.986z M217.481,108.382
				c0.752,0.228,0.712,0.384,0.604,0.852c-0.696,3.036-1.512,5.456-4.608,6.616c-0.084-0.052-5.664-1.408-7.86-2.724
				c-0.056-0.032-0.176-0.104-0.18-0.128c-0.008-0.508,0.656-1.148,1.096-1.572c0,0,3.72-3.62,3.74-3.648
				C212.745,107.134,215.097,107.65,217.481,108.382z"/>
			<path d="M53.721,73.146c-11.172,0-20.26,12.112-20.26,26.996c0,14.884,9.088,26.996,20.26,26.996s20.26-12.108,20.26-26.996
				S64.893,73.146,53.721,73.146z M53.721,124.866c-9.92,0-17.996-11.092-17.996-24.724c0-13.636,8.076-24.728,17.996-24.728
				s17.996,11.092,17.996,24.728C71.717,113.774,63.645,124.866,53.721,124.866z"/>
			<path d="M116.085,149.05c-2.916-0.852-5.572-0.196-8.248,0.624c-0.512,0.156-2.072,0.632-1.612,2.588
				c0.7,3.052,1.616,5.912,4.86,7.416c-1.196,1.284-1.864,2.864-2.084,4.888c-0.088,0.852,0.736,1.876,1.472,2.152
				c2.332,0.88,5.32,1.624,8.132-0.132c1.376,1.668,2.28,2.684,3.304,2.984c0.068,0.02,0.136,0.028,0.208,0.028
				s0.14-0.008,0.208-0.028c1.024-0.3,1.928-1.312,3.304-2.984c2.816,1.756,5.8,1.012,8.128,0.132
				c0.744-0.276,1.568-1.3,1.476-2.156c-0.224-2.02-0.892-3.6-2.084-4.884c3.244-1.504,4.16-4.364,4.86-7.416
				c0.448-1.96-1.1-2.432-1.612-2.588c-2.68-0.82-5.328-1.48-8.248-0.624c-0.608-2.892-2.712-4.756-4.672-6.292
				c-0.416-0.32-0.78-0.52-1.152-0.624c-0.132-0.04-0.272-0.04-0.408,0c-0.372,0.104-0.752,0.312-1.156,0.628
				C118.793,144.294,116.693,146.154,116.085,149.05z M107.661,151.93c-0.108-0.464-0.144-0.62,0.604-0.848
				c2.456-0.752,4.876-1.288,7.424-0.548c0.012,0.012,4.104,3.652,4.104,3.652c0.456,0.4,1.216,1.072,1.244,1.54
				c-0.04,0.04-0.192,0.124-0.248,0.152c-2.436,1.336-5.356,2.244-8.432,2.616c-0.04,0.004-0.056,0.044-0.092,0.052
				C109.169,157.386,108.357,154.97,107.661,151.93z M121.617,157.19c0.036-0.04,0.428-0.364,0.584-0.556
				c0.176-0.232,0.264-0.52,0.272-0.828c0.016,0.28,0.076,0.536,0.224,0.744c0.196,0.268,0.464,0.432,0.644,0.54
				c0.036,0.024,0.124,0.088,0.136,0.1c0.74,0.824,2.236,2.84,1.408,4.944c-0.764-0.516-2.024-1.788-2.076-1.808
				c-0.088-0.036-0.164-0.056-0.26-0.056s-0.168,0.02-0.26,0.056c-0.052,0.02-1.312,1.288-2.076,1.808
				C119.385,160.03,120.877,158.014,121.617,157.19z M133.761,164.686c-0.02,0.168-0.332,0.58-0.528,0.652
				c-3.224,1.208-5.408,1.108-7.304-0.332c-0.316-0.236-0.764-0.184-1.016,0.12c-1.216,1.48-2.124,2.592-2.8,2.94
				c-0.676-0.348-1.584-1.46-2.8-2.94c-0.144-0.176-0.356-0.268-0.572-0.268c-0.156,0-0.312,0.048-0.444,0.148
				c-1.908,1.448-4.084,1.544-7.308,0.332c-0.192-0.072-0.504-0.484-0.524-0.616c0.228-2.096,2.504-4.82,2.536-4.86
				c2.2-0.308,4.26-0.928,6.188-1.72c-0.936,1.872-0.924,3.808,0.112,5.44c0.14,0.22,0.38,0.34,0.62,0.34
				c0.128,0,0.252-0.032,0.372-0.1c0.936-0.548,1.66-1.168,2.252-1.788c0.592,0.624,1.32,1.244,2.252,1.788
				c0.116,0.068,0.244,0.1,0.372,0.1c0.244,0,0.48-0.12,0.62-0.34c1.012-1.588,1.02-3.464,0.16-5.292
				c1.644,0.68,3.372,1.22,5.216,1.496C131.213,159.858,133.533,162.626,133.761,164.686z M128.753,150.478
				c2.472-0.644,4.824-0.128,7.208,0.6c0.752,0.228,0.712,0.384,0.604,0.852c-0.696,3.036-1.512,5.456-4.608,6.616
				c-0.084-0.052-5.664-1.408-7.86-2.724c-0.056-0.032-0.176-0.104-0.18-0.128c-0.008-0.508,0.656-1.148,1.096-1.572
				C125.017,154.126,128.733,150.506,128.753,150.478z M122.113,143.63c0.132,0.068,0.284,0.164,0.452,0.292
				c2.376,1.86,4.004,3.62,4.244,6.176c0.008,0.064-2.816,2.964-2.816,2.964c-0.644,0.62-1.516,1.472-1.54,2.576
				c-0.064-1.112-1.024-1.984-1.68-2.564l-3.364-2.964c0-0.004,0.008-0.008,0.008-0.012c0.24-2.556,1.868-4.32,4.244-6.176
				C121.825,143.794,121.977,143.698,122.113,143.63z"/>
			<path d="M59.749,92.602c-0.608-2.892-2.712-4.756-4.672-6.292c-0.416-0.32-0.78-0.52-1.152-0.624c-0.132-0.04-0.272-0.04-0.408,0
				c-0.372,0.104-0.752,0.312-1.156,0.628c-1.96,1.532-4.06,3.396-4.668,6.288c-2.916-0.852-5.572-0.196-8.248,0.624
				c-0.512,0.156-2.072,0.632-1.612,2.588c0.7,3.052,1.616,5.912,4.86,7.416c-1.196,1.284-1.864,2.864-2.084,4.888
				c-0.088,0.852,0.736,1.876,1.472,2.152c2.332,0.88,5.32,1.624,8.132-0.132c1.376,1.668,2.28,2.684,3.304,2.984
				c0.068,0.02,0.136,0.028,0.208,0.028c0.072,0,0.14-0.008,0.208-0.028c1.024-0.3,1.928-1.312,3.304-2.984
				c2.816,1.756,5.8,1.012,8.128,0.132c0.744-0.276,1.568-1.3,1.476-2.156c-0.224-2.02-0.892-3.6-2.084-4.884
				c3.244-1.504,4.16-4.364,4.86-7.416c0.448-1.96-1.1-2.432-1.612-2.588C65.321,92.406,62.673,91.746,59.749,92.602z
				 M49.029,93.654c0.24-2.556,1.868-4.32,4.244-6.176c0.164-0.128,0.316-0.224,0.452-0.292c0.132,0.068,0.284,0.164,0.452,0.292
				c2.376,1.86,4.004,3.62,4.244,6.176c0.008,0.064-2.816,2.964-2.816,2.964c-0.644,0.62-1.516,1.472-1.54,2.576
				c-0.064-1.112-1.024-1.984-1.68-2.564l-3.364-2.968C49.021,93.662,49.025,93.658,49.029,93.654z M56.493,105.69
				c-0.764-0.516-2.024-1.788-2.076-1.808c-0.088-0.036-0.164-0.056-0.26-0.056c-0.096,0-0.168,0.02-0.26,0.056
				c-0.052,0.02-1.312,1.288-2.076,1.808c-0.824-2.104,0.668-4.124,1.408-4.944c0.036-0.04,0.428-0.364,0.584-0.556
				c0.176-0.232,0.264-0.52,0.272-0.828c0.016,0.28,0.076,0.536,0.224,0.744c0.196,0.268,0.464,0.432,0.644,0.54
				c0.036,0.024,0.124,0.088,0.136,0.1C55.825,101.566,57.321,103.586,56.493,105.69z M39.269,95.482
				c-0.108-0.464-0.144-0.62,0.604-0.848c2.456-0.752,4.876-1.288,7.424-0.548c0.012,0.012,4.104,3.652,4.104,3.652
				c0.456,0.4,1.216,1.072,1.244,1.54c-0.04,0.04-0.192,0.124-0.248,0.152c-2.436,1.336-5.356,2.244-8.432,2.616
				c-0.04,0.004-0.056,0.044-0.092,0.052C40.781,100.942,39.965,98.522,39.269,95.482z M65.373,108.238
				c-0.02,0.168-0.332,0.58-0.528,0.652c-3.224,1.208-5.408,1.108-7.304-0.332c-0.316-0.236-0.764-0.184-1.016,0.12
				c-1.216,1.48-2.124,2.592-2.8,2.94c-0.676-0.348-1.584-1.46-2.8-2.94c-0.144-0.176-0.356-0.268-0.572-0.268
				c-0.156,0-0.312,0.048-0.444,0.148c-1.908,1.448-4.084,1.544-7.308,0.332c-0.192-0.072-0.504-0.484-0.524-0.616
				c0.228-2.096,2.504-4.82,2.536-4.86c2.2-0.308,4.26-0.928,6.188-1.72c-0.936,1.872-0.924,3.808,0.112,5.44
				c0.14,0.22,0.38,0.34,0.62,0.34c0.128,0,0.252-0.032,0.372-0.1c0.936-0.548,1.66-1.168,2.252-1.788
				c0.592,0.624,1.32,1.244,2.252,1.788c0.116,0.068,0.244,0.1,0.372,0.1c0.244,0,0.48-0.12,0.62-0.34
				c1.012-1.588,1.02-3.464,0.16-5.292c1.644,0.68,3.372,1.22,5.216,1.496C62.821,103.41,65.145,106.178,65.373,108.238z
				 M67.569,94.634c0.752,0.228,0.712,0.384,0.604,0.852c-0.696,3.036-1.512,5.456-4.608,6.616c-0.084-0.052-5.664-1.408-7.86-2.724
				c-0.056-0.032-0.176-0.104-0.18-0.128c-0.008-0.508,0.656-1.148,1.096-1.572c0,0,3.72-3.62,3.74-3.648
				C62.833,93.39,65.185,93.906,67.569,94.634z"/>
		</g>
	</g>
</g>
</svg>