<?xml version="1.0" encoding="utf-8"?><!-- Uploaded to: SVG Repo, www.svgrepo.com, Generator: SVG Repo Mixer Tools -->
<svg width="800px" height="800px" viewBox="0 0 32 32" fill="none" xmlns="http://www.w3.org/2000/svg">
<path d="M4.001 21C5.001 24 8.001 29 16.001 29C24.001 29 27.001 24 28.001 21M31 19C31 17 27.001 7 16 7M16 7C5.001 7 1 17 1 19M16 7V3M21.1758 3.6816L20.1758 7.4106M26 5.6797L23.999 9.1427M30.1416 8.8574L27.3136 11.6844M10.8223 3.6816L11.8213 7.4106M5.999 5.6797L7.999 9.1437M1.8574 8.8574L4.6854 11.6854M16.001 12C12.688 12 10.001 14.687 10.001 18C10.001 21.313 12.688 24 16.001 24C19.314 24 22.001 21.313 22.001 18M21.2441 15.0869C20.7001 14.1089 19.8911 13.3009 18.9141 12.7569M18.001 18C18.001 16.896 17.105 16 16.001 16C14.897 16 14.001 16.896 14.001 18C14.001 19.104 14.897 20 16.001 20C17.105 20 18.001 19.104 18.001 18Z" stroke="#000000" stroke-width="2" stroke-linecap="round" stroke-linejoin="round"/>
</svg>